<?xml version="1.0" encoding="utf-8"?>
<!-- Generator: Adobe Illustrator 23.0.3, SVG Export Plug-In . SVG Version: 6.00 Build 0)  -->
<svg version="1.1" id="Icons" xmlns="http://www.w3.org/2000/svg" xmlns:xlink="http://www.w3.org/1999/xlink" x="0px" y="0px"
	 viewBox="0 0 32 32" style="enable-background:new 0 0 32 32;" xml:space="preserve">
<style type="text/css">
	.st0{fill:none;stroke:#49a760;stroke-width:2;stroke-linecap:round;stroke-linejoin:round;stroke-miterlimit:10;}
</style>
<path class="st0" d="M19.2,6.9c-1.7,0.7-3.8-0.7-3.8-0.7s0.7-2.4,2.4-3s3.8,0.7,3.8,0.7S20.9,6.2,19.2,6.9z"/>
<path class="st0" d="M22.1,9.1C20.6,8.8,19,9.2,17.8,10c-1.1,0.7-2.5,0.7-3.5,0C13,9.2,11.4,8.8,9.9,9.1c-3.7,0.6-6.3,4.5-5.8,8.7
	c0.5,4.2,4.6,11.7,8.3,11.1c0.5-0.1,1-0.3,1.4-0.6c1.3-0.9,3.1-0.9,4.4,0c0.4,0.3,0.9,0.5,1.4,0.6c3.7,0.6,7.8-6.9,8.3-11.1
	C28.5,13.6,25.9,9.7,22.1,9.1z"/>
<path class="st0" d="M12,3l0.4,0.3C14.7,5,16,7.7,16,10.5v0"/>
</svg>
